<?xml version="1.0" ?><!DOCTYPE svg  PUBLIC '-//W3C//DTD SVG 1.1//EN'  'http://www.w3.org/Graphics/SVG/1.1/DTD/svg11.dtd'><svg enable-background="new 0 0 64 64" height="64px" id="Vkontakte" version="1.1" viewBox="0 0 64 64" width="64px" xml:space="preserve" xmlns="http://www.w3.org/2000/svg" xmlns:xlink="http://www.w3.org/1999/xlink"><linearGradient gradientTransform="matrix(1 0 0 1 -2192 -2908)" gradientUnits="userSpaceOnUse" id="Circle_Shadow_1_" x1="2256.0293" x2="2224.03" y1="2972" y2="2940.0007"><stop offset="0.3163" style="stop-color:#FFFFFF;stop-opacity:0"/><stop offset="0.3508" style="stop-color:#E9E9E9;stop-opacity:0.0504"/><stop offset="0.4543" style="stop-color:#ACACAC;stop-opacity:0.2018"/><stop offset="0.5572" style="stop-color:#787878;stop-opacity:0.3523"/><stop offset="0.6569" style="stop-color:#4D4D4D;stop-opacity:0.4981"/><stop offset="0.7528" style="stop-color:#2B2B2B;stop-opacity:0.6385"/><stop offset="0.8441" style="stop-color:#131313;stop-opacity:0.7719"/><stop offset="0.9286" style="stop-color:#050505;stop-opacity:0.8956"/><stop offset="1" style="stop-color:#000000"/></linearGradient><polygon enable-background="new    " fill="url(#Circle_Shadow_1_)" id="Circle_Shadow" opacity="0.2" points="64.029,64   64.029,30.059 49,15.029 15.059,48.971 30.088,64 "/><circle cx="32" cy="32" fill="#54769B" id="Circle" r="24"/><g id="VK_Shadow"><g><defs><circle cx="32.029" cy="32" id="SVGID_1_" r="24"/></defs><clipPath id="SVGID_2_"><use overflow="visible" xlink:href="#SVGID_1_"/></clipPath><linearGradient gradientTransform="matrix(1 0 0 -1 -274 -299)" gradientUnits="userSpaceOnUse" id="SVGID_3_" x1="351.834" x2="297.1589" y1="-372.0669" y2="-317.3918"><stop offset="0.5612" style="stop-color:#000000;stop-opacity:0"/><stop offset="0.7041" style="stop-color:#000000"/></linearGradient><path clip-path="url(#SVGID_2_)" d="M76.05,66.995    c-0.01-0.011-0.019-0.019-0.028-0.027c-0.027-0.026-0.049-0.051-0.078-0.079c-0.01-0.01-0.019-0.018-0.027-0.027    c-0.027-0.026-0.05-0.051-0.078-0.078c-0.01-0.01-0.02-0.018-0.029-0.027c-0.026-0.027-0.049-0.051-0.076-0.079    c-0.01-0.01-0.02-0.018-0.028-0.026c-0.028-0.027-0.05-0.051-0.078-0.08c-0.01-0.01-0.019-0.018-0.028-0.026    c-0.027-0.026-0.05-0.051-0.078-0.079c-0.014-0.014-0.025-0.023-0.041-0.038c-0.022-0.022-0.041-0.043-0.064-0.067    c-0.01-0.01-0.02-0.018-0.028-0.026c-0.028-0.026-0.05-0.051-0.077-0.079c-0.007-0.006-0.012-0.01-0.018-0.016    c-0.031-0.032-0.057-0.059-0.089-0.092c-0.015-0.014-0.027-0.023-0.041-0.037c-0.022-0.024-0.042-0.045-0.065-0.068    c-0.011-0.01-0.02-0.018-0.029-0.027c-0.027-0.027-0.049-0.051-0.078-0.078c-0.006-0.006-0.01-0.011-0.016-0.017    c-0.033-0.032-0.058-0.06-0.09-0.091c-0.02-0.02-0.033-0.032-0.053-0.051c-0.02-0.02-0.035-0.035-0.055-0.055    c-0.01-0.011-0.02-0.019-0.029-0.027c-0.027-0.027-0.049-0.051-0.077-0.079c-0.006-0.007-0.011-0.011-0.017-0.017    c-0.032-0.031-0.057-0.059-0.09-0.091c-0.014-0.014-0.026-0.024-0.041-0.038c-0.022-0.023-0.041-0.044-0.065-0.068    c-0.006-0.006-0.011-0.01-0.017-0.016c-0.031-0.031-0.058-0.059-0.09-0.091c-0.01-0.01-0.019-0.019-0.027-0.026    c-0.028-0.027-0.051-0.052-0.078-0.08c-0.016-0.014-0.027-0.023-0.041-0.039c-0.018-0.018-0.031-0.031-0.049-0.049    c0-0.502,0.535-1.287,1.897-3.104c1.843-2.456,3.185-4.681,2.954-5.323c-0.018-0.046-0.068-0.095-0.137-0.145    c-0.023-0.034-0.057-0.07-0.105-0.106c-0.023-0.035-0.059-0.069-0.109-0.106c-0.021-0.035-0.055-0.068-0.104-0.104    c-0.023-0.035-0.058-0.071-0.109-0.108c-0.021-0.035-0.056-0.068-0.104-0.104c-0.023-0.034-0.057-0.07-0.105-0.106    c-0.023-0.033-0.058-0.07-0.106-0.105c-0.022-0.034-0.058-0.07-0.106-0.105c-0.022-0.035-0.057-0.07-0.105-0.106    c-0.023-0.035-0.059-0.07-0.107-0.107c-0.022-0.032-0.056-0.067-0.104-0.104c-0.022-0.034-0.058-0.069-0.107-0.106    c-0.022-0.034-0.057-0.069-0.106-0.106c-0.022-0.034-0.055-0.068-0.104-0.104c-0.022-0.035-0.057-0.071-0.108-0.108    c-0.021-0.033-0.055-0.067-0.104-0.104c-0.023-0.036-0.059-0.072-0.109-0.109c-0.021-0.033-0.056-0.068-0.104-0.104    c-0.023-0.034-0.057-0.07-0.107-0.105c-0.021-0.035-0.056-0.07-0.104-0.106c-0.022-0.034-0.058-0.07-0.106-0.106    c-0.022-0.033-0.057-0.07-0.105-0.105c-0.023-0.034-0.057-0.07-0.105-0.106c-0.023-0.034-0.058-0.069-0.107-0.106    c-0.022-0.034-0.057-0.069-0.107-0.105c-0.021-0.034-0.055-0.068-0.104-0.104c-0.023-0.035-0.059-0.071-0.109-0.108    c-0.021-0.034-0.057-0.069-0.104-0.104c-0.023-0.035-0.058-0.07-0.106-0.106c-0.022-0.034-0.058-0.07-0.106-0.106    c-0.022-0.033-0.057-0.07-0.106-0.105c-0.022-0.035-0.058-0.07-0.106-0.105c-0.022-0.035-0.057-0.07-0.105-0.105    c-0.022-0.035-0.057-0.07-0.105-0.106c-0.023-0.034-0.057-0.069-0.105-0.106c-0.023-0.033-0.057-0.069-0.106-0.105    c-0.022-0.033-0.057-0.07-0.106-0.105c-0.022-0.034-0.057-0.07-0.106-0.106c-0.022-0.034-0.056-0.069-0.104-0.104    c-0.022-0.035-0.059-0.071-0.11-0.109c-0.022-0.033-0.054-0.066-0.103-0.102c-0.022-0.037-0.059-0.072-0.108-0.109    c-0.023-0.034-0.056-0.068-0.104-0.104c-0.021-0.035-0.056-0.07-0.105-0.107c-0.023-0.034-0.057-0.07-0.107-0.106    c-0.021-0.034-0.056-0.069-0.105-0.104c-0.022-0.035-0.057-0.071-0.107-0.108c-0.023-0.034-0.056-0.067-0.104-0.104    c-0.023-0.033-0.058-0.068-0.106-0.105c-0.022-0.034-0.058-0.07-0.106-0.105c-0.022-0.035-0.057-0.07-0.105-0.106    c-0.023-0.034-0.057-0.069-0.105-0.106c-0.023-0.033-0.058-0.069-0.106-0.105c-0.022-0.034-0.058-0.07-0.106-0.105    c-0.022-0.035-0.058-0.07-0.107-0.106c-0.022-0.034-0.057-0.069-0.104-0.104c-0.022-0.035-0.057-0.07-0.106-0.106    c-0.022-0.034-0.057-0.07-0.105-0.106c-0.023-0.033-0.057-0.07-0.105-0.105c-0.023-0.035-0.059-0.07-0.108-0.107    c-0.022-0.033-0.056-0.068-0.104-0.104c-0.022-0.035-0.058-0.071-0.108-0.108c-0.022-0.035-0.056-0.069-0.104-0.104    c-0.022-0.035-0.057-0.07-0.105-0.106c-0.023-0.034-0.057-0.069-0.105-0.106c-0.023-0.033-0.058-0.069-0.106-0.105    c-0.023-0.034-0.058-0.07-0.107-0.105c-0.022-0.035-0.055-0.07-0.104-0.105c-0.021-0.035-0.057-0.071-0.107-0.108    c-0.021-0.034-0.056-0.069-0.105-0.104c-0.022-0.034-0.057-0.069-0.106-0.106c-0.022-0.034-0.056-0.067-0.104-0.104    c-0.021-0.034-0.056-0.069-0.105-0.106c-0.023-0.034-0.057-0.069-0.105-0.106c-0.023-0.033-0.058-0.069-0.106-0.105    c-0.022-0.035-0.058-0.07-0.108-0.107c-0.021-0.033-0.056-0.067-0.104-0.104c-0.023-0.034-0.057-0.07-0.106-0.105    c-0.022-0.035-0.057-0.07-0.106-0.106c-0.022-0.034-0.057-0.07-0.105-0.106c-0.023-0.033-0.057-0.07-0.105-0.105    c-0.023-0.034-0.058-0.07-0.107-0.106c-0.021-0.034-0.057-0.069-0.107-0.106c-0.022-0.034-0.056-0.068-0.104-0.104    c-0.023-0.034-0.057-0.069-0.105-0.106c-0.023-0.033-0.058-0.069-0.106-0.105c-0.022-0.034-0.058-0.07-0.106-0.105    c-0.022-0.035-0.057-0.069-0.105-0.106c-0.023-0.034-0.057-0.069-0.107-0.106c-0.021-0.035-0.057-0.069-0.107-0.106    c-0.021-0.034-0.055-0.068-0.104-0.104c-0.023-0.035-0.058-0.07-0.109-0.107c-0.021-0.034-0.056-0.069-0.104-0.105    c-0.022-0.033-0.056-0.07-0.104-0.105c-0.022-0.034-0.057-0.069-0.105-0.105c-0.021-0.035-0.059-0.07-0.107-0.107    c-0.022-0.034-0.056-0.068-0.104-0.104c-0.022-0.034-0.058-0.071-0.108-0.108c-0.023-0.033-0.056-0.068-0.104-0.104    c-0.022-0.035-0.056-0.068-0.105-0.105c-0.022-0.035-0.057-0.069-0.106-0.106c-0.022-0.034-0.057-0.07-0.105-0.106    c-0.023-0.033-0.057-0.07-0.105-0.105c-0.023-0.034-0.058-0.07-0.106-0.105c-0.022-0.035-0.058-0.07-0.106-0.106    c-0.022-0.035-0.058-0.07-0.107-0.107c-0.023-0.034-0.057-0.067-0.104-0.104c-0.023-0.033-0.058-0.069-0.106-0.105    c-0.022-0.033-0.058-0.07-0.106-0.105c-0.022-0.034-0.057-0.07-0.105-0.106c-0.023-0.034-0.057-0.069-0.106-0.106    c-0.022-0.033-0.057-0.068-0.106-0.104c-0.022-0.035-0.057-0.071-0.106-0.106c-0.022-0.035-0.058-0.069-0.106-0.105    c-0.021-0.034-0.056-0.07-0.104-0.105c-0.022-0.035-0.058-0.07-0.106-0.106c-0.022-0.034-0.057-0.07-0.105-0.106    c-0.023-0.035-0.059-0.07-0.107-0.106c-0.023-0.034-0.056-0.068-0.104-0.104c-0.022-0.035-0.058-0.072-0.109-0.109    c-0.022-0.032-0.055-0.066-0.104-0.104c-0.022-0.035-0.058-0.07-0.107-0.107c-0.022-0.035-0.057-0.069-0.106-0.106    c-0.022-0.034-0.055-0.067-0.104-0.104c-0.022-0.035-0.06-0.071-0.108-0.108c-0.023-0.034-0.056-0.068-0.104-0.104    c-0.022-0.035-0.058-0.072-0.11-0.108c-0.021-0.033-0.053-0.066-0.101-0.103c-0.022-0.035-0.058-0.072-0.11-0.109    c-0.021-0.033-0.056-0.068-0.104-0.104c-0.023-0.034-0.057-0.069-0.106-0.106c-0.022-0.033-0.057-0.069-0.106-0.105    c-0.022-0.033-0.057-0.07-0.105-0.105c-0.023-0.034-0.057-0.07-0.107-0.106c-0.021-0.035-0.057-0.069-0.106-0.106    c-0.022-0.033-0.056-0.068-0.104-0.104c-0.022-0.034-0.057-0.069-0.105-0.106c-0.023-0.033-0.057-0.07-0.105-0.105    c-0.023-0.034-0.057-0.069-0.104-0.104c-0.022-0.037-0.058-0.072-0.108-0.109c-0.023-0.034-0.057-0.069-0.105-0.105    c-0.023-0.033-0.057-0.068-0.107-0.105c-0.021-0.034-0.055-0.068-0.104-0.104c-0.023-0.034-0.059-0.071-0.109-0.108    c-0.021-0.033-0.055-0.067-0.104-0.104c-0.023-0.035-0.059-0.07-0.109-0.107c-0.023-0.035-0.057-0.069-0.105-0.105    c-0.022-0.035-0.058-0.07-0.107-0.107c-0.021-0.033-0.055-0.067-0.104-0.104c-0.022-0.035-0.058-0.071-0.107-0.107    c-0.023-0.035-0.057-0.07-0.105-0.105c-0.022-0.035-0.057-0.069-0.105-0.105c-0.023-0.035-0.057-0.07-0.107-0.107    c-0.021-0.034-0.057-0.069-0.107-0.105c-0.021-0.033-0.055-0.068-0.104-0.105c-0.021-0.034-0.057-0.069-0.107-0.106    c-0.022-0.034-0.057-0.069-0.104-0.104c-0.022-0.034-0.058-0.07-0.106-0.106c-0.022-0.035-0.057-0.069-0.106-0.106    c-0.022-0.035-0.058-0.069-0.106-0.105c-0.021-0.034-0.056-0.068-0.104-0.105c-0.022-0.035-0.058-0.069-0.106-0.106    c-0.022-0.034-0.057-0.069-0.105-0.104c-0.023-0.035-0.059-0.072-0.108-0.108c-0.022-0.033-0.055-0.067-0.104-0.104    c-0.021-0.035-0.057-0.07-0.108-0.107c-0.022-0.034-0.056-0.069-0.104-0.105c-0.022-0.033-0.056-0.068-0.104-0.105    c-0.022-0.034-0.058-0.07-0.108-0.107c-0.022-0.034-0.056-0.068-0.104-0.104c-0.022-0.035-0.058-0.071-0.108-0.108    c-0.021-0.033-0.055-0.067-0.104-0.104c-0.021-0.035-0.057-0.07-0.107-0.107c-0.023-0.034-0.057-0.068-0.104-0.104    c-0.022-0.035-0.058-0.072-0.109-0.108c-0.022-0.034-0.056-0.069-0.104-0.105c-0.022-0.034-0.057-0.069-0.105-0.104    c-0.021-0.035-0.056-0.07-0.105-0.106c-0.022-0.034-0.058-0.071-0.109-0.108c-0.021-0.033-0.055-0.067-0.104-0.104    c-0.021-0.035-0.058-0.07-0.107-0.107c-0.023-0.035-0.055-0.068-0.104-0.104c-0.022-0.035-0.057-0.069-0.106-0.106    c-0.022-0.035-0.058-0.069-0.106-0.105c-0.021-0.035-0.057-0.07-0.105-0.105c-0.023-0.035-0.057-0.07-0.106-0.106    c-0.022-0.035-0.058-0.071-0.108-0.107c-0.021-0.034-0.055-0.069-0.104-0.104c-0.023-0.034-0.057-0.07-0.105-0.106    c-0.023-0.034-0.058-0.069-0.106-0.106c-0.022-0.033-0.058-0.069-0.106-0.105c-0.022-0.035-0.058-0.07-0.107-0.107    c-0.021-0.032-0.055-0.067-0.104-0.104c-0.022-0.035-0.059-0.07-0.109-0.107c-0.021-0.035-0.057-0.069-0.104-0.105    c-0.023-0.034-0.057-0.068-0.104-0.104c-0.022-0.037-0.06-0.072-0.11-0.109c-0.021-0.034-0.055-0.069-0.104-0.104    c-0.022-0.035-0.057-0.07-0.106-0.107c-0.022-0.034-0.057-0.069-0.106-0.105c-0.021-0.035-0.056-0.07-0.105-0.105    c-0.021-0.035-0.057-0.07-0.105-0.106c-0.022-0.034-0.057-0.069-0.106-0.106c-0.022-0.034-0.058-0.069-0.106-0.106    c-0.022-0.034-0.056-0.067-0.104-0.104c-0.022-0.035-0.058-0.07-0.108-0.107c-0.022-0.034-0.055-0.068-0.104-0.104    c-0.023-0.037-0.059-0.071-0.109-0.108c-0.021-0.034-0.056-0.069-0.105-0.104c-0.021-0.035-0.057-0.07-0.106-0.107    c-0.022-0.034-0.055-0.068-0.104-0.104c-0.021-0.035-0.055-0.07-0.106-0.107c-0.022-0.034-0.056-0.069-0.104-0.105    c-0.023-0.035-0.059-0.07-0.108-0.107c-0.022-0.034-0.056-0.068-0.104-0.104c-0.021-0.035-0.057-0.071-0.107-0.106    c-0.021-0.035-0.057-0.069-0.104-0.105c-0.023-0.034-0.058-0.07-0.106-0.105c-0.023-0.035-0.058-0.07-0.106-0.106    c-0.023-0.035-0.058-0.07-0.107-0.106c-0.022-0.033-0.055-0.068-0.104-0.104c-0.022-0.035-0.057-0.071-0.106-0.108    c-0.023-0.033-0.058-0.068-0.106-0.104c-0.022-0.035-0.056-0.07-0.106-0.106c-0.021-0.033-0.056-0.068-0.104-0.105    c-0.022-0.035-0.058-0.07-0.108-0.107c-0.022-0.033-0.057-0.068-0.104-0.105c-0.022-0.035-0.058-0.07-0.106-0.106    c-0.021-0.035-0.056-0.07-0.104-0.106c-0.022-0.035-0.056-0.07-0.104-0.106c-0.023-0.036-0.06-0.072-0.111-0.109    c-0.021-0.034-0.055-0.068-0.104-0.104c-0.023-0.035-0.058-0.071-0.107-0.108c-0.023-0.034-0.056-0.068-0.104-0.104    c-0.022-0.036-0.058-0.072-0.108-0.109c-0.022-0.034-0.056-0.068-0.104-0.104c-0.022-0.035-0.058-0.071-0.108-0.108    c-0.022-0.034-0.056-0.069-0.104-0.104c-0.022-0.036-0.058-0.072-0.108-0.108c-0.023-0.035-0.056-0.069-0.104-0.105    c-0.023-0.035-0.057-0.07-0.107-0.107c-0.021-0.034-0.056-0.069-0.104-0.105c-0.023-0.035-0.057-0.071-0.107-0.107    c-0.023-0.035-0.057-0.07-0.105-0.106c-0.023-0.035-0.058-0.07-0.107-0.107c-0.023-0.035-0.057-0.069-0.105-0.105    c-0.022-0.035-0.057-0.07-0.106-0.107c-0.022-0.035-0.058-0.07-0.106-0.106c-0.022-0.035-0.056-0.069-0.104-0.105    c-0.022-0.035-0.058-0.07-0.106-0.107c-0.022-0.035-0.057-0.07-0.105-0.106c-0.023-0.035-0.057-0.07-0.107-0.107    c-0.023-0.035-0.056-0.069-0.105-0.105c-0.022-0.035-0.057-0.07-0.106-0.107c-0.022-0.035-0.056-0.07-0.104-0.106    c-0.023-0.034-0.057-0.069-0.105-0.105c-0.023-0.035-0.056-0.07-0.105-0.106c-0.022-0.035-0.057-0.071-0.106-0.107    c-0.022-0.036-0.058-0.071-0.108-0.108c-0.022-0.034-0.057-0.069-0.104-0.104c-0.022-0.035-0.056-0.07-0.104-0.106    c-0.023-0.035-0.058-0.07-0.106-0.106c-0.022-0.035-0.058-0.07-0.106-0.107c-0.022-0.034-0.057-0.069-0.105-0.105    c-0.023-0.035-0.057-0.071-0.107-0.107c-0.021-0.034-0.056-0.069-0.105-0.105c-0.022-0.035-0.057-0.07-0.105-0.106    c-0.023-0.035-0.057-0.07-0.107-0.107c-0.022-0.035-0.057-0.07-0.105-0.106c-0.021-0.035-0.057-0.07-0.105-0.106    c-0.022-0.034-0.057-0.07-0.105-0.106c-0.023-0.035-0.057-0.07-0.107-0.107c-0.022-0.035-0.056-0.069-0.104-0.105    c-0.022-0.035-0.058-0.07-0.106-0.106c-0.022-0.035-0.057-0.07-0.106-0.107c-0.022-0.034-0.056-0.069-0.105-0.105    c-0.022-0.036-0.057-0.071-0.106-0.108c-0.023-0.035-0.057-0.069-0.105-0.105c-0.023-0.035-0.057-0.07-0.107-0.107    c-0.021-0.034-0.056-0.069-0.104-0.106c-0.022-0.034-0.056-0.069-0.104-0.105c-0.022-0.035-0.058-0.071-0.108-0.108    c-0.022-0.035-0.056-0.069-0.104-0.105c-0.023-0.035-0.058-0.07-0.106-0.106c-0.022-0.035-0.056-0.07-0.104-0.106    c-0.023-0.035-0.059-0.071-0.109-0.108c-0.022-0.034-0.055-0.068-0.104-0.103c-0.021-0.036-0.057-0.071-0.107-0.108    c-0.022-0.035-0.057-0.07-0.105-0.106c-0.023-0.035-0.057-0.07-0.107-0.107c-0.021-0.034-0.056-0.069-0.104-0.105    c-0.022-0.036-0.058-0.072-0.108-0.109c-0.022-0.034-0.056-0.069-0.104-0.105c-0.022-0.034-0.056-0.069-0.106-0.105    c-0.021-0.035-0.055-0.07-0.104-0.106c-0.023-0.035-0.059-0.071-0.107-0.108c-0.023-0.035-0.058-0.07-0.106-0.106    c-0.022-0.035-0.056-0.07-0.106-0.106c-0.021-0.034-0.055-0.069-0.104-0.105c-0.023-0.035-0.059-0.071-0.108-0.108    c-0.407-0.614-5.327-1.532-5.923-0.638c-1.189,1.786-1.798,2.764-2.23,3.534c-0.027-0.025-0.053-0.052-0.082-0.074    c-0.035-0.035-0.065-0.076-0.105-0.106c-0.035-0.036-0.066-0.077-0.107-0.107c-0.035-0.035-0.065-0.076-0.104-0.105    c-0.035-0.035-0.065-0.076-0.106-0.106c-0.035-0.035-0.065-0.076-0.105-0.106c-0.035-0.035-0.066-0.076-0.106-0.106    c-0.034-0.035-0.065-0.076-0.106-0.106c-0.034-0.035-0.065-0.076-0.106-0.106c-0.034-0.035-0.065-0.076-0.104-0.105    c-0.035-0.036-0.066-0.077-0.106-0.107c-0.035-0.036-0.067-0.076-0.106-0.106c-0.035-0.035-0.065-0.076-0.105-0.106    c-0.035-0.035-0.066-0.076-0.105-0.106c-0.035-0.036-0.066-0.077-0.106-0.107c-0.035-0.035-0.065-0.076-0.106-0.106    c-0.035-0.035-0.065-0.076-0.105-0.106c-0.035-0.035-0.066-0.076-0.105-0.106c-0.035-0.035-0.066-0.076-0.106-0.106    c-0.035-0.036-0.066-0.077-0.106-0.107c-0.035-0.035-0.066-0.076-0.105-0.106c-0.035-0.035-0.066-0.076-0.106-0.106    c-0.034-0.036-0.065-0.077-0.106-0.107c-0.035-0.035-0.065-0.076-0.105-0.106c-0.035-0.035-0.066-0.076-0.105-0.106    c-0.035-0.036-0.066-0.077-0.106-0.107c-0.035-0.035-0.065-0.075-0.104-0.105c-0.035-0.036-0.066-0.077-0.106-0.107    c-0.035-0.035-0.065-0.076-0.106-0.106c-0.035-0.035-0.065-0.076-0.106-0.106c-0.035-0.035-0.065-0.076-0.105-0.105    c-0.034-0.036-0.067-0.077-0.106-0.107c-0.035-0.035-0.066-0.076-0.106-0.106c-0.034-0.035-0.065-0.075-0.104-0.105    c-0.035-0.036-0.066-0.077-0.106-0.107c-0.035-0.036-0.067-0.077-0.106-0.107c-0.035-0.035-0.065-0.075-0.105-0.105    c-0.035-0.035-0.066-0.077-0.105-0.106c-0.035-0.036-0.066-0.077-0.106-0.107c-0.035-0.035-0.065-0.076-0.106-0.106    c-0.144-0.144-0.312-0.259-0.537-0.313c0,0-2,0-3,0c-1.61,0-3,1-3,1s-1.241,0.968-1,1c0.026,0.003,0.074,0,0.119-0.002    c-0.04,0.058-0.057,0.103-0.013,0.108c0.026,0.003,0.074,0,0.12-0.002c-0.04,0.058-0.058,0.103-0.013,0.109    c0.026,0.003,0.074,0,0.119-0.002c-0.04,0.058-0.058,0.103-0.013,0.109c0.026,0.003,0.074,0,0.119-0.002    c-0.04,0.058-0.057,0.103-0.013,0.109c0.026,0.003,0.074,0,0.118-0.002c-0.039,0.058-0.057,0.103-0.012,0.108    c0.026,0.003,0.074,0,0.12-0.002c-0.04,0.058-0.058,0.103-0.013,0.109c0.026,0.003,0.074,0,0.119-0.002    c-0.04,0.058-0.057,0.103-0.012,0.109c0.026,0.003,0.074,0,0.118-0.002c-0.039,0.058-0.057,0.103-0.012,0.109    c0.026,0.003,0.074,0,0.12-0.002c-0.04,0.058-0.058,0.103-0.013,0.109c0.026,0.003,0.074,0,0.119-0.002    c-0.04,0.058-0.058,0.103-0.013,0.109c0.026,0.003,0.074,0,0.119-0.002c-0.04,0.058-0.057,0.103-0.013,0.109    c0.026,0.003,0.074,0,0.119-0.002c-0.04,0.058-0.057,0.103-0.013,0.109c0.026,0.003,0.074,0,0.119-0.002    c-0.04,0.058-0.057,0.102-0.012,0.108c0.026,0.003,0.074,0,0.119-0.002c-0.04,0.058-0.057,0.103-0.013,0.109    c0.026,0.003,0.074,0,0.119-0.002c-0.04,0.058-0.057,0.103-0.013,0.109c0.026,0.003,0.074,0,0.119-0.002    c-0.039,0.058-0.057,0.103-0.012,0.108c0.026,0.003,0.074,0,0.119-0.002c-0.04,0.058-0.057,0.103-0.013,0.109    c0.026,0.003,0.074,0,0.119-0.002c-0.04,0.058-0.057,0.103-0.013,0.109c0.019,0.002,0.056-0.001,0.084-0.002    c0,0.017,0,0.034,0,0.05c-0.003,0.007,0.001,0.009,0,0.015c0,0.584,0,1.023,0,1.023s0.002,1.467-0.22,2.625    c-0.021-0.022-0.042-0.035-0.062-0.055c-0.037-0.04-0.073-0.075-0.108-0.107c-0.035-0.039-0.07-0.073-0.104-0.105    c-0.037-0.04-0.073-0.075-0.108-0.107c-0.036-0.039-0.071-0.073-0.105-0.105c-0.036-0.039-0.072-0.074-0.106-0.106    c-0.036-0.039-0.072-0.074-0.106-0.106c-0.037-0.04-0.073-0.075-0.107-0.107c-0.036-0.039-0.072-0.074-0.106-0.106    c-0.036-0.039-0.071-0.074-0.105-0.105c-0.036-0.039-0.072-0.075-0.107-0.107c-0.037-0.04-0.073-0.075-0.108-0.108    c-0.035-0.038-0.07-0.072-0.104-0.104c-0.037-0.04-0.073-0.076-0.108-0.108c-0.035-0.039-0.071-0.073-0.104-0.104    c-0.037-0.04-0.073-0.075-0.108-0.108c-0.036-0.039-0.072-0.074-0.106-0.106c-0.037-0.04-0.073-0.075-0.108-0.107    c-0.035-0.038-0.07-0.072-0.104-0.104c-0.036-0.039-0.072-0.075-0.107-0.107c-0.037-0.039-0.073-0.075-0.107-0.107    c-0.036-0.039-0.072-0.074-0.106-0.105c-0.036-0.039-0.072-0.074-0.106-0.106c-0.037-0.04-0.073-0.076-0.108-0.108    c-0.035-0.038-0.07-0.073-0.104-0.104c-0.037-0.04-0.073-0.076-0.108-0.108c-0.036-0.04-0.072-0.075-0.107-0.107    c-0.036-0.039-0.071-0.074-0.105-0.105c-0.036-0.039-0.072-0.074-0.106-0.106c-0.037-0.04-0.073-0.075-0.108-0.107    c-0.035-0.039-0.07-0.073-0.104-0.104c-0.036-0.039-0.072-0.075-0.106-0.106c-0.037-0.04-0.073-0.075-0.108-0.107    c-0.036-0.039-0.071-0.074-0.105-0.106c-0.037-0.039-0.073-0.075-0.107-0.107c-0.036-0.039-0.072-0.074-0.106-0.106    c-0.035-0.038-0.071-0.073-0.104-0.104c-0.037-0.04-0.073-0.075-0.108-0.108c-0.036-0.039-0.072-0.074-0.106-0.106    c-0.036-0.039-0.072-0.074-0.106-0.106c-0.036-0.039-0.071-0.074-0.105-0.105c-0.037-0.04-0.073-0.075-0.108-0.108    c-0.036-0.039-0.071-0.073-0.105-0.105c-0.036-0.039-0.071-0.074-0.105-0.106c-0.037-0.04-0.073-0.075-0.108-0.108    c-0.036-0.039-0.071-0.073-0.105-0.105c-0.036-0.039-0.072-0.075-0.107-0.106c-0.037-0.04-0.073-0.075-0.107-0.107    c-0.036-0.039-0.071-0.073-0.105-0.105c-0.035-0.038-0.071-0.073-0.104-0.104c-0.037-0.04-0.074-0.076-0.109-0.109    c-0.036-0.038-0.071-0.073-0.104-0.104c-0.036-0.039-0.072-0.074-0.106-0.106c-0.037-0.04-0.073-0.075-0.108-0.108    c-0.036-0.039-0.072-0.074-0.106-0.106c-0.035-0.038-0.07-0.073-0.104-0.104c-0.037-0.04-0.074-0.076-0.109-0.109    c-0.036-0.039-0.071-0.074-0.105-0.105c-0.037-0.039-0.073-0.075-0.107-0.107c-0.464-0.501-0.769-0.403-1.545-0.403    c-1.072,0-1.999,0.042-3,0.042c-1,0-1.128,0.637-1,0.958c2,5,3.437,8.141,7.237,12.096c0.218,0.229,0.432,0.439,0.641,0.643    c0.036,0.035,0.073,0.074,0.108,0.107c0.035,0.034,0.07,0.072,0.104,0.104c0.035,0.035,0.072,0.074,0.107,0.107    c0.037,0.036,0.076,0.077,0.113,0.112c0.034,0.032,0.069,0.069,0.102,0.103c0.105,0.105,0.213,0.217,0.317,0.316    c0.037,0.036,0.076,0.077,0.112,0.111c0.034,0.033,0.068,0.069,0.102,0.103c0.073,0.071,0.148,0.149,0.22,0.22    c0.032,0.03,0.066,0.066,0.098,0.098c0.146,0.147,0.292,0.298,0.434,0.435c0.032,0.031,0.066,0.067,0.099,0.099    c0.039,0.037,0.078,0.08,0.117,0.115c0.032,0.031,0.065,0.066,0.097,0.098c0.035,0.033,0.071,0.071,0.105,0.104    c0.035,0.034,0.072,0.073,0.107,0.106s0.071,0.072,0.106,0.105c0.107,0.107,0.216,0.221,0.321,0.321    c0.037,0.036,0.075,0.075,0.111,0.11c0.072,0.07,0.146,0.147,0.216,0.217c0.032,0.029,0.065,0.066,0.097,0.097    c0.036,0.034,0.073,0.074,0.108,0.108c0.145,0.146,0.29,0.295,0.431,0.431c0.068,0.065,0.138,0.142,0.206,0.205    c0.035,0.034,0.072,0.073,0.106,0.106c0.036,0.034,0.073,0.073,0.108,0.107c0.038,0.036,0.077,0.077,0.114,0.113    c0.142,0.144,0.284,0.289,0.422,0.422c0.033,0.031,0.068,0.068,0.101,0.102c0.035,0.033,0.072,0.072,0.106,0.105    c0.037,0.035,0.076,0.076,0.113,0.111c0.032,0.031,0.066,0.067,0.098,0.1c0.037,0.036,0.076,0.077,0.113,0.111    c0.034,0.033,0.07,0.072,0.104,0.104c0.034,0.033,0.07,0.072,0.104,0.104c0.035,0.033,0.072,0.072,0.106,0.105    c0.07,0.07,0.144,0.146,0.213,0.213c0.038,0.037,0.077,0.078,0.114,0.113c0.032,0.031,0.066,0.068,0.099,0.1    c0.035,0.033,0.071,0.072,0.106,0.105c0.035,0.033,0.071,0.072,0.105,0.105c0.108,0.107,0.219,0.223,0.325,0.324    c0.071,0.07,0.145,0.146,0.215,0.215c0.033,0.031,0.067,0.067,0.1,0.1c0.037,0.035,0.075,0.076,0.111,0.111    c0.145,0.146,0.291,0.295,0.431,0.43c0.032,0.031,0.066,0.066,0.098,0.099c0.035,0.033,0.07,0.071,0.105,0.104    s0.072,0.072,0.105,0.105c0.035,0.034,0.072,0.073,0.106,0.105c0.035,0.035,0.072,0.074,0.106,0.106    c0.035,0.034,0.072,0.073,0.105,0.106c0.022,0.021,0.045,0.046,0.067,0.066c0.051,0.051,0.104,0.105,0.155,0.154    c0.181,0.186,0.359,0.367,0.535,0.535c0.066,0.064,0.137,0.139,0.201,0.201c0.07,0.07,0.143,0.146,0.213,0.213    c0.069,0.068,0.143,0.145,0.211,0.211c0.035,0.033,0.071,0.072,0.106,0.107c0.038,0.037,0.077,0.078,0.115,0.113    c0.034,0.033,0.069,0.07,0.104,0.104c0.104,0.104,0.211,0.216,0.313,0.313c0.035,0.034,0.072,0.073,0.105,0.106    c0.035,0.033,0.072,0.072,0.107,0.107c0.01,0.01,0.021,0.021,0.031,0.029c0.061,0.061,0.123,0.127,0.184,0.186    c0.074,0.071,0.148,0.15,0.223,0.221c0.019,0.018,0.036,0.037,0.055,0.056c0.05,0.048,0.101,0.103,0.147,0.147    c0.035,0.033,0.07,0.07,0.104,0.104c0.035,0.034,0.072,0.073,0.105,0.105c0.035,0.035,0.072,0.074,0.107,0.106    c0.07,0.07,0.145,0.147,0.214,0.216c0.036,0.034,0.073,0.073,0.108,0.106c0.107,0.108,0.219,0.224,0.324,0.325    c0.033,0.031,0.067,0.068,0.102,0.101c0.068,0.068,0.142,0.144,0.21,0.21c0.069,0.069,0.144,0.146,0.212,0.213    c0.035,0.033,0.07,0.071,0.105,0.105c0.035,0.033,0.07,0.07,0.105,0.104c0.038,0.038,0.078,0.08,0.117,0.117    c0.031,0.031,0.064,0.066,0.098,0.098c0.035,0.035,0.071,0.072,0.105,0.106c0.035,0.033,0.07,0.071,0.104,0.104    c0.035,0.033,0.072,0.072,0.106,0.105c0.035,0.034,0.072,0.073,0.105,0.105c0.022,0.021,0.045,0.047,0.067,0.067    c0.049,0.048,0.101,0.103,0.147,0.147c0.035,0.035,0.072,0.074,0.107,0.107c0.068,0.068,0.143,0.145,0.211,0.211    c0.109,0.108,0.221,0.225,0.327,0.326c0.032,0.031,0.065,0.067,0.099,0.098c0.033,0.033,0.069,0.072,0.104,0.104    c0.035,0.035,0.074,0.075,0.109,0.108c0.021,0.021,0.043,0.046,0.064,0.065c0.049,0.048,0.1,0.103,0.146,0.147    c0.039,0.037,0.078,0.076,0.114,0.113c0.032,0.03,0.066,0.066,0.099,0.099c0.021,0.021,0.045,0.045,0.065,0.065    c0.05,0.047,0.101,0.102,0.147,0.146c0.033,0.033,0.07,0.07,0.104,0.104c0.071,0.071,0.146,0.149,0.217,0.219    c0.069,0.066,0.142,0.143,0.209,0.207c0.034,0.035,0.071,0.074,0.105,0.106c0.035,0.034,0.072,0.073,0.105,0.106    c0.037,0.035,0.073,0.074,0.108,0.107c0.071,0.07,0.146,0.146,0.215,0.215c0.072,0.071,0.147,0.149,0.22,0.219    c0.031,0.031,0.064,0.066,0.097,0.097c0.034,0.034,0.071,0.073,0.106,0.106c0.039,0.037,0.078,0.078,0.116,0.115    c0.032,0.031,0.063,0.066,0.097,0.096c0.035,0.035,0.071,0.074,0.105,0.106c0.035,0.034,0.072,0.073,0.105,0.106    c0.035,0.033,0.072,0.072,0.107,0.105c0.034,0.034,0.071,0.073,0.105,0.106c0.035,0.034,0.072,0.073,0.107,0.108    c0.034,0.033,0.069,0.07,0.104,0.104c0.037,0.035,0.074,0.074,0.109,0.107c0.036,0.037,0.074,0.076,0.11,0.11    c0.142,0.144,0.283,0.289,0.421,0.423c0.073,0.071,0.148,0.15,0.223,0.221c0.032,0.031,0.066,0.068,0.101,0.101    c0.069,0.067,0.141,0.144,0.209,0.209c0.034,0.033,0.071,0.072,0.104,0.104c0.035,0.035,0.072,0.074,0.106,0.106    c0.035,0.034,0.071,0.073,0.106,0.106c0.071,0.07,0.146,0.147,0.217,0.217c0.072,0.072,0.148,0.15,0.222,0.22    c0.03,0.03,0.063,0.065,0.094,0.095c0.035,0.035,0.072,0.073,0.106,0.106c0.021,0.021,0.045,0.046,0.066,0.067    c0.049,0.047,0.1,0.1,0.146,0.146c0.038,0.038,0.078,0.08,0.117,0.116c0.031,0.031,0.063,0.066,0.097,0.098    c0.034,0.033,0.069,0.072,0.104,0.104c0.035,0.034,0.072,0.073,0.107,0.108c0.021,0.021,0.044,0.045,0.064,0.064    c0.05,0.048,0.101,0.102,0.147,0.146c0.021,0.021,0.044,0.045,0.065,0.065c0.049,0.048,0.1,0.103,0.146,0.147    c0.034,0.033,0.069,0.069,0.104,0.103c0.039,0.038,0.08,0.08,0.119,0.118c0.214,0.222,0.423,0.432,0.629,0.629    c0.033,0.033,0.068,0.07,0.104,0.104c0.075,0.075,0.153,0.156,0.229,0.229c0.066,0.064,0.136,0.138,0.201,0.201    c0.035,0.033,0.069,0.07,0.104,0.104c0.039,0.038,0.079,0.079,0.117,0.116c0.031,0.03,0.064,0.065,0.097,0.097    c0.035,0.034,0.072,0.073,0.106,0.107c0.021,0.021,0.045,0.045,0.066,0.064c0.047,0.047,0.098,0.101,0.146,0.146    c0.034,0.034,0.071,0.072,0.104,0.105c0.035,0.035,0.072,0.073,0.107,0.106c0.033,0.034,0.07,0.073,0.105,0.106    c0.039,0.037,0.08,0.08,0.118,0.117c0.03,0.029,0.063,0.063,0.093,0.094c0.037,0.035,0.076,0.076,0.111,0.111    c0.021,0.021,0.043,0.043,0.063,0.063c0.049,0.047,0.1,0.1,0.146,0.146c0.035,0.034,0.072,0.073,0.107,0.107    c0.021,0.021,0.045,0.045,0.066,0.066c0.049,0.047,0.1,0.102,0.147,0.147c0.069,0.067,0.142,0.146,0.211,0.211    c0.069,0.068,0.144,0.146,0.212,0.212c0.073,0.072,0.148,0.151,0.223,0.221c0.031,0.031,0.065,0.067,0.098,0.1    c0.035,0.033,0.07,0.07,0.104,0.104c0.035,0.034,0.072,0.073,0.107,0.107c0.034,0.034,0.071,0.072,0.106,0.107    c0.021,0.021,0.045,0.045,0.065,0.064c0.049,0.048,0.101,0.102,0.147,0.146c0.034,0.033,0.069,0.072,0.104,0.104    c0.038,0.037,0.078,0.078,0.115,0.114c0.033,0.031,0.066,0.068,0.101,0.101c0.034,0.033,0.069,0.071,0.104,0.104    s0.072,0.072,0.105,0.105c0.035,0.034,0.072,0.073,0.107,0.106c0.033,0.034,0.07,0.073,0.104,0.106    c0.035,0.033,0.072,0.072,0.107,0.105c0.034,0.035,0.071,0.074,0.106,0.107c0.022,0.021,0.045,0.045,0.066,0.066    c0.052,0.051,0.105,0.105,0.156,0.156c0.031,0.029,0.063,0.064,0.096,0.094c0.034,0.034,0.07,0.073,0.105,0.105    c0.035,0.035,0.071,0.074,0.106,0.106c0.034,0.034,0.071,0.073,0.104,0.106c0.035,0.033,0.072,0.072,0.107,0.105    c0.035,0.035,0.071,0.074,0.105,0.107c0.035,0.033,0.072,0.072,0.107,0.105c0.036,0.037,0.074,0.076,0.11,0.111    c0.164,0.168,0.327,0.333,0.485,0.486c0.05,0.048,0.102,0.103,0.149,0.148c0.036,0.035,0.074,0.074,0.109,0.108    c0.034,0.032,0.069,0.071,0.104,0.104c0.034,0.032,0.068,0.069,0.103,0.103c0.036,0.034,0.073,0.073,0.108,0.108    c0.057,0.056,0.114,0.116,0.172,0.172c0.051,0.051,0.105,0.106,0.157,0.156c0.031,0.03,0.063,0.064,0.095,0.094    c0.035,0.035,0.071,0.074,0.105,0.106c0.035,0.034,0.072,0.073,0.107,0.106c0.033,0.033,0.07,0.072,0.104,0.105    c0.035,0.034,0.072,0.073,0.106,0.106c0.035,0.034,0.072,0.073,0.105,0.106c0.035,0.033,0.072,0.072,0.107,0.105    c0.037,0.038,0.078,0.08,0.117,0.117c0.031,0.029,0.063,0.066,0.097,0.097c0.034,0.033,0.069,0.072,0.104,0.104    c0.035,0.033,0.071,0.072,0.106,0.105c0.034,0.034,0.071,0.073,0.104,0.105c0.035,0.035,0.072,0.074,0.107,0.106    c0.034,0.034,0.071,0.073,0.105,0.106c0.035,0.035,0.072,0.074,0.107,0.107c0.035,0.034,0.071,0.073,0.105,0.106    c0.07,0.067,0.143,0.146,0.211,0.21c0.021,0.021,0.045,0.046,0.066,0.066c0.049,0.049,0.101,0.103,0.147,0.147    c0.038,0.036,0.075,0.077,0.112,0.112c0.035,0.033,0.07,0.07,0.104,0.104c0.104,0.105,0.213,0.217,0.315,0.315    c0.021,0.021,0.043,0.045,0.064,0.065c0.049,0.047,0.1,0.1,0.146,0.146c0.035,0.034,0.072,0.073,0.107,0.106    c0.036,0.037,0.075,0.077,0.112,0.112c0.144,0.146,0.288,0.294,0.429,0.429c3.184,3.099,5.37,3.28,7.217,3.357c0.5,0.021,0,0,1,0    s1-1.441,1-2c0-1,1-2,2-2s2.715,1.715,4,3c1,1,1,1,2,1s3,0,3,0s2-0.076,2-2C79.05,70.37,78.363,69.311,76.05,66.995z" enable-background="new    " fill="url(#SVGID_3_)" opacity="0.3"/></g></g><path d="M33.021,40.995c1,0,1-1.44,1-2c0-1,1-2,2-2s2.715,1.715,4,3c1,1,1,1,2,1s3,0,3,0s2-0.076,2-2  c0-0.625-0.687-1.687-3-4c-2-2-3.025-0.968,0-5c1.842-2.456,3.184-4.681,2.953-5.323c-0.22-0.613-5.347-1.589-5.953-0.677  c-2,3-2.367,3.735-3,5c-1,2-1.101,3-2,3c-0.91,0-1-1.941-1-3c0-3.306,0.479-5.644-1-6c0,0-2,0-3,0c-1.61,0-3,1-3,1s-1.241,0.968-1,1  c0.298,0.04,2-0.414,2,1c0,1,0,2,0,2s0.009,4-1,4c-1,0-3-4-5-7c-0.785-1.177-1-1-2-1c-1.072,0-1.999,0.042-3,0.042  c-1,0-1.128,0.637-1,0.958c2,5,3.437,8.141,7.237,12.096c3.485,3.63,5.813,3.822,7.763,3.904  C32.521,41.018,32.021,40.995,33.021,40.995z" fill="#FFFFFF" id="VK_1_"/></svg>